<svg width="252" height="83" viewBox="0 0 252 83" fill="none" xmlns="http://www.w3.org/2000/svg">
<path d="M157.135 11.2904L140.028 12.5421L145.535 14.0442L157.969 23.2237L162.809 26.1444L165.563 35.4907L159.388 45.0874L156.384 23.8078L144.283 16.6312L139.527 17.716L141.863 20.4698L143.699 26.7285L145.118 35.4907L145.535 47.6743L146.954 61.4435L151.961 63.029L163.226 59.3573L168.15 55.0179L177.246 47.6743L178.998 34.99L177.246 26.7285L172.573 17.716L166.147 13.1263L157.135 11.2904Z" fill="#FFCC01"/>
<path d="M160.389 19.967L155.549 28.1451L138.942 19.967L138.191 12.6235L150.208 9.70276L160.389 19.967Z" fill="#FFCC01"/>
<path d="M141.533 14.2926V19.4665L138.862 18.632L137.36 11.2884C140.097 10.02 145.399 8.97966 147.708 8.61804L147.04 10.8712L144.704 9.28564L141.533 14.2926Z" fill="#1A498D"/>
<path d="M137.361 23.8874V11.37L141.617 18.6301L145.038 17.9625L149.378 61.1893C161.461 59.3867 169.433 53.1503 171.909 50.2574C180.387 40.555 177.834 29.7474 175.497 25.5564C170.619 15.5424 161.504 12.9277 157.556 12.872C151.881 11.7371 144.565 13.3449 141.617 14.2907L144.704 9.28372C155.453 6.27954 165.483 10.0904 169.155 12.3713C182.24 20.3825 182.618 34.5133 181.172 40.5773C177.233 60.0043 155.887 65.4174 145.706 65.6955L141.116 23.0529L137.361 23.8874Z" fill="#1A498D"/>
<path d="M140.782 14.6055L141.867 14.1048L145.205 9.18127L144.37 9.34817L140.782 14.6055Z" fill="#1A498D"/>
<path d="M159.889 28.0371C159.222 27.503 158.526 27.0913 158.387 27.1191L157.636 22.1122C158.437 22.1789 158.582 22.3069 158.554 22.3625L159.889 28.0371Z" fill="#1A498D"/>
<path d="M157.137 47.4239L154.467 22.1387L159.557 31.6519L160.726 41.5824C166.133 35.5073 161.922 29.6491 159.14 27.4794L158.389 22.1387C163.329 24.0079 165.732 28.3696 166.317 30.3167C170.456 42.5337 161.922 46.8119 157.137 47.4239Z" fill="#1A498D"/>
<path d="M159.641 32.6516L158.389 22.137C156.186 21.6697 154.912 22.0258 154.467 22.2205L159.641 32.6516Z" fill="#1A498D"/>
<path d="M224.982 7.51038L210.628 17.3574L215.635 36.217L198.111 56.9124L215.635 66.7595L221.81 58.2476L224.982 70.5981L246.011 72.9347L235.496 37.886L250.35 16.5229L236.998 10.6815L229.488 20.1947L224.982 7.51038Z" fill="#1A498D" stroke="#1A498D"/>
<path d="M222.807 14.1877L215.297 19.5285L220.22 37.5536L204.365 55.9125L214.379 61.3367L223.224 48.5689L228.482 66.7609L240.331 68.263L230.985 37.5536L244.504 18.3602L238.496 15.6898L227.647 28.541L222.807 14.1877Z" fill="#FFCC01" stroke="#FFCC01"/>
<path d="M71.2661 32.3792L67.7613 33.3806L66.9268 21.197L89.1243 14.521V22.3653L95.4665 13.5197L111.656 29.542L99.472 42.2263L124.34 52.574V74.7716L91.6278 58.5824V72.435L75.2717 74.7716L71.2661 32.3792Z" fill="#1A498D" stroke="#1A498D"/>
<path d="M120.002 55.0753L92.1297 44.06L105.482 29.7067L95.6346 20.5272L85.7876 33.7123L84.7862 20.5272L71.7681 24.3659V28.0377L75.4398 27.0363L79.2785 69.7625L87.6235 68.4273V51.7374L120.002 67.4259V55.0753Z" fill="#FFCC01" stroke="#FFCC01"/>
<path d="M56.2792 40.3162C46.2653 45.5234 44.4294 56.0603 44.7632 60.6778V61.5123C46.6325 73.9296 58.0038 75.2537 63.4558 74.3636C73.2027 71.2926 77.4197 65.4067 78.3098 62.8475C83.6506 53.6347 78.9774 45.2119 75.9732 42.1521C67.9621 35.7431 59.5059 38.2577 56.2792 40.3162Z" fill="#1A498D" stroke="#1A498D"/>
<path d="M57.6357 42.9785C49.5154 47.1894 48.0267 55.7101 48.2974 59.4442V60.119C49.8132 70.1603 59.0342 71.2311 63.4552 70.5112C71.3589 68.0279 74.7785 63.2682 75.5003 61.1987C79.8311 53.7487 76.0416 46.9375 73.6056 44.4631C67.1093 39.2805 60.2522 41.3139 57.6357 42.9785Z" fill="#FFCC01" stroke="#FFCC01"/>
<path d="M57.1182 52.917C56.3838 45.9072 62.1529 44.5442 65.1293 44.7389C59.4548 47.7431 62.0417 50.942 64.0445 52.1659C68.9847 54.0352 70.4422 50.1631 70.5535 47.9934C73.2906 53.3342 69.413 56.5609 67.1321 57.5067C60.5897 59.3759 57.7301 55.2257 57.1182 52.917Z" fill="#1A498D"/>
<path d="M123.527 24.338L113.931 28.0932L109.341 39.6927L111.677 49.039L120.94 55.2977L134.042 54.8804L144.64 49.5397L145.892 46.5355L144.64 43.9486L138.548 39.0251L135.961 41.1948L130.203 43.9486L121.775 42.6968L119.855 41.1948L120.44 35.1864L125.78 31.3477L129.619 32.8498L123.527 40.5272L131.789 42.6968L135.294 39.0251L139.132 35.1864L142.637 31.3477L140.134 26.1739L131.789 23.42L123.527 24.338Z" fill="#FFCC01"/>
<path d="M126.111 38.6907L120.687 43.8645L128.448 45.7004L132.62 38.6907H126.111Z" fill="#FFCC01"/>
<path d="M119.94 22.1698C134.226 17.2296 143.584 25.8973 146.477 30.8486L141.219 30.4313C138.749 26.6928 133.681 25.1462 131.456 24.8402C120.774 23.7721 114.655 29.6247 112.93 32.6845C107.322 42.5649 113.264 49.7081 116.935 52.0447C127.617 58.5872 139.968 51.3215 144.808 46.8709L137.965 40.5287L140.802 37.1907L150.983 46.0364C143.639 54.5816 134.905 57.7193 131.456 58.22C118.504 60.8904 111.15 53.8806 109.091 50.0419C101.214 34.0197 113.041 24.7846 119.94 22.1698Z" fill="#1A498D"/>
<path d="M142.305 28.2587L141.22 30.4284L127.702 44.9485C133.443 44.7483 136.937 41.9165 137.966 40.5257L140.803 37.1877L146.561 30.8456L142.305 28.2587Z" fill="#1A498D"/>
<path d="M125.48 29.557C122.809 29.6237 121.14 31.0312 120.64 31.7266C117.702 34.7308 118.025 38.041 118.553 39.3205L121.14 35.9826C121.674 34.4471 122.587 33.5625 122.976 33.3122C124.846 31.7767 126.982 32.3386 127.816 32.8115L121.558 39.8212C120.957 39.4207 120.918 37.429 120.974 36.4832L118.887 40.155C119.154 41.3567 120.779 42.9367 121.558 43.5764L131.738 32.0604C129.135 29.7906 126.481 29.4457 125.48 29.557Z" fill="#1A498D"/>
<path d="M118.3 35.8999C117.766 38.37 118.967 40.7122 119.635 41.5745L121.554 39.822C120.753 38.2866 120.942 36.5675 121.137 35.8999H118.3Z" fill="#1A498D"/>
<path d="M133.267 0L116.661 18.943L119.665 22.6148L129.512 20.6955L142.363 13.6023L133.267 0Z" fill="#1A498D"/>
<path d="M132.431 5.00623L122.333 16.9395L123.502 18.3581L137.187 11.5153L132.431 5.00623Z" fill="#FFCC01"/>
<path d="M189.952 25.1714L180.355 28.9266L175.766 40.526L178.102 49.8724L187.365 56.1311L200.467 55.7138L211.065 50.3731L212.317 47.3689L211.065 44.782L204.973 39.8584L202.386 42.0281L196.628 44.782L188.2 43.5302L186.28 42.0281L186.864 36.0198L192.205 32.1811L196.044 33.6832L189.952 41.3605L198.214 43.5302L201.718 39.8584L205.557 36.0198L209.062 32.1811L206.558 27.0072L198.214 24.2534L189.952 25.1714Z" fill="#FFCC01"/>
<path d="M192.544 39.5272L187.12 44.7011L194.88 46.537L199.053 39.5272H192.544Z" fill="#FFCC01"/>
<path d="M186.364 23.0021C200.651 18.0619 210.008 26.7295 212.901 31.6809L207.644 31.2636C205.173 27.5251 200.105 25.9785 197.88 25.6725C187.198 24.6044 181.079 30.4569 179.354 33.5167C173.746 43.3972 179.688 50.5404 183.36 52.877C194.041 59.4194 206.392 52.1538 211.232 47.7031L204.389 41.361L207.226 38.023L217.407 46.8686C210.064 55.4139 201.329 58.5516 197.88 59.0522C184.929 61.7226 177.574 54.7129 175.516 50.8742C167.638 34.8519 179.465 25.6169 186.364 23.0021Z" fill="#1A498D"/>
<path d="M208.73 29.0946L207.645 31.2643L194.126 45.7845C199.868 45.5842 203.362 42.7525 204.391 41.3617L207.228 38.0237L212.986 31.6815L208.73 29.0946Z" fill="#1A498D"/>
<path d="M191.908 30.3948C189.237 30.4616 187.568 31.8691 187.067 32.5645C184.13 35.5687 184.453 38.8789 184.981 40.1584L187.568 36.8204C188.102 35.285 189.015 34.4004 189.404 34.1501C191.273 32.6146 193.41 33.1765 194.244 33.6494L187.985 40.6591C187.385 40.2586 187.346 38.2669 187.401 37.3211L185.315 40.9929C185.582 42.1946 187.207 43.7746 187.985 44.4143L198.166 32.8983C195.563 30.6285 192.909 30.2836 191.908 30.3948Z" fill="#1A498D"/>
<path d="M184.724 36.7361C184.19 39.2062 185.392 41.5483 186.06 42.4106L187.979 40.6582C187.178 39.1227 187.367 37.4037 187.562 36.7361H184.724Z" fill="#1A498D"/>
<path d="M17.9668 18.8483L5.25732 24.182L11.8534 37.0994L15.9558 37.5161L23.2758 57.934L30.6763 79.602L41.2943 76.6852L38.3181 58.6841L35.4222 40.433L34.3765 33.4326L38.3181 32.9325L42.0183 35.9327L41.2943 41.8497L36.9506 46.6834L39.6051 54.6838L44.9141 50.2669L51.5906 42.2664L54.3256 37.9328L51.9928 29.099L46.5229 22.2652L38.9616 18.0983L29.6306 17.0149L17.9668 18.8483Z" fill="#FFCC01"/>
<path d="M41.8944 46.5567L32.9653 46.1394L35.7192 59.4079L43.3965 53.1492L41.8944 46.5567Z" fill="#FFCC01"/>
<path d="M9.01649 42.2989L1.75639 27.0276L11.3531 36.8747L15.9428 35.1222L30.5465 78.0153L39.9762 75.929L36.6383 54.1487C46.8525 48.8079 50.9081 40.7412 51.6592 37.3754C52.9276 32.4351 50.63 28.0846 49.3226 26.5269C45.8511 21.8537 41.0333 20.296 39.0583 20.1013C34.5854 18.2988 27.0694 18.7939 23.8705 19.2668C15.9261 19.8009 8.43235 23.4393 5.67852 25.1917L0.0874023 23.1889C7.83151 18.8496 17.0555 16.3183 20.6994 15.595C25.1055 14.1263 33.495 14.7605 37.139 15.2612C41.2781 15.595 46.0402 18.2932 47.9039 19.6006C54.1126 24.2738 55.8316 30.3378 55.9151 32.7856C56.6494 38.4602 53.5507 44.0513 51.9095 46.1376C49.6397 50.1431 43.5646 54.5938 40.8107 56.3184L44.3991 79.1836L27.7092 82.7719L13.3559 40.5464L9.01649 42.2989Z" fill="#1A498D"/>
<path d="M31.6299 32.37L34.2168 44.1364L37.3879 43.886L35.6355 34.7901L31.9637 32.2031L31.6299 32.37Z" fill="#1A498D"/>
<path d="M35.1325 48.4752L33.1297 39.2123L37.1353 43.3013C38.337 42.7672 39.5831 40.8535 40.056 39.9633C41.725 34.8896 37.8029 34.4 35.6332 34.7895L31.9614 32.2025C36.1673 30.4668 40.0004 32.0913 41.3912 33.1205C44.1284 35.9244 43.7 39.3514 43.1437 40.7144C42.7431 43.8521 37.636 47.1956 35.1325 48.4752Z" fill="#1A498D"/>
<path d="M0 23.2825L9.09599 42.2255L12.6843 38.6372L5.67456 25.0349L2.00279 22.1976L0 23.2825Z" fill="#1A498D"/>
</svg>
